<svg viewBox="0 0 1200 720" xmlns="http://www.w3.org/2000/svg">
  <rect width="1200" height="720" fill="#0F1210"/>
  <!-- Ambient glow -->
  <ellipse cx="600" cy="360" rx="420" ry="260" fill="rgba(36,61,47,0.35)"/>

  <!-- Phone left: Room overview -->
  <rect x="100" y="80" width="260" height="550" rx="32" fill="#111411" stroke="#1E2820" stroke-width="1.5"/>
  <rect x="113" y="98" width="234" height="514" rx="24" fill="#161B17"/>
  <text x="230" y="136" font-family="system-ui" font-size="12" fill="rgba(255,255,255,0.3)" text-anchor="middle">Living Room</text>
  <!-- Room temp/time -->
  <text x="130" y="172" font-family="system-ui" font-size="28" font-weight="200" fill="white">72°</text>
  <text x="130" y="192" font-family="system-ui" font-size="10" fill="rgba(255,255,255,0.3)">Relax vibe · active</text>
  <!-- Device tiles -->
  <rect x="130" y="210" width="100" height="90" rx="14" fill="#1A2D22"/>
  <text x="180" y="248" font-family="system-ui" font-size="20" fill="rgba(255,255,255,0.7)" text-anchor="middle">💡</text>
  <text x="180" y="268" font-family="system-ui" font-size="10" fill="rgba(255,255,255,0.5)" text-anchor="middle">Lights</text>
  <text x="180" y="282" font-family="system-ui" font-size="9" fill="rgba(255,255,255,0.25)" text-anchor="middle">On · 60%</text>
  <rect x="240" y="210" width="100" height="90" rx="14" fill="#1E2620"/>
  <text x="290" y="248" font-family="system-ui" font-size="20" fill="rgba(255,255,255,0.5)" text-anchor="middle">🪟</text>
  <text x="290" y="268" font-family="system-ui" font-size="10" fill="rgba(255,255,255,0.5)" text-anchor="middle">Shades</text>
  <text x="290" y="282" font-family="system-ui" font-size="9" fill="rgba(255,255,255,0.25)" text-anchor="middle">50% open</text>
  <rect x="130" y="312" width="100" height="90" rx="14" fill="#1E2620"/>
  <text x="180" y="350" font-family="system-ui" font-size="20" fill="rgba(255,255,255,0.5)" text-anchor="middle">🌡</text>
  <text x="180" y="370" font-family="system-ui" font-size="10" fill="rgba(255,255,255,0.5)" text-anchor="middle">Climate</text>
  <text x="180" y="384" font-family="system-ui" font-size="9" fill="rgba(255,255,255,0.25)" text-anchor="middle">72° · Cool</text>
  <rect x="240" y="312" width="100" height="90" rx="14" fill="#1A2D22"/>
  <text x="290" y="350" font-family="system-ui" font-size="20" fill="rgba(255,255,255,0.7)" text-anchor="middle">🎵</text>
  <text x="290" y="370" font-family="system-ui" font-size="10" fill="rgba(255,255,255,0.5)" text-anchor="middle">Audio</text>
  <text x="290" y="384" font-family="system-ui" font-size="9" fill="rgba(255,255,255,0.25)" text-anchor="middle">Playing</text>
  <!-- Status bar -->
  <rect x="130" y="416" width="210" height="40" rx="10" fill="#111411"/>
  <circle cx="150" cy="436" r="5" fill="#243D2F"/>
  <text x="163" y="440" font-family="system-ui" font-size="10" fill="rgba(255,255,255,0.35)">Flow Box · connected</text>

  <!-- Phone center: Vibes -->
  <rect x="470" y="40" width="260" height="630" rx="32" fill="#111411" stroke="#243D2F" stroke-width="2"/>
  <rect x="483" y="58" width="234" height="594" rx="24" fill="#161B17"/>
  <text x="600" y="100" font-family="system-ui" font-size="13" fill="rgba(255,255,255,0.35)" text-anchor="middle">Vibes</text>
  <text x="600" y="124" font-family="system-ui" font-size="11" fill="rgba(255,255,255,0.2)" text-anchor="middle">Choose your environment</text>
  <!-- Active vibe -->
  <rect x="499" y="142" width="202" height="100" rx="16" fill="#1A2D22" stroke="#243D2F" stroke-width="1.5"/>
  <text x="520" y="176" font-family="system-ui" font-size="24">🌙</text>
  <text x="556" y="174" font-family="system-ui" font-size="14" font-weight="500" fill="white">Relax</text>
  <text x="556" y="191" font-family="system-ui" font-size="10" fill="rgba(255,255,255,0.35)">Warm lights · 65° · Lo-fi</text>
  <rect x="556" y="204" width="52" height="20" rx="6" fill="#243D2F"/>
  <text x="582" y="218" font-family="system-ui" font-size="9" fill="white" text-anchor="middle">Active</text>
  <!-- Other vibes -->
  <rect x="499" y="256" width="96" height="84" rx="14" fill="#1E2620"/>
  <text x="547" y="288" font-family="system-ui" font-size="22" text-anchor="middle">☀️</text>
  <text x="547" y="310" font-family="system-ui" font-size="10" fill="rgba(255,255,255,0.5)" text-anchor="middle">Morning</text>
  <rect x="605" y="256" width="96" height="84" rx="14" fill="#1E2620"/>
  <text x="653" y="288" font-family="system-ui" font-size="22" text-anchor="middle">🎯</text>
  <text x="653" y="310" font-family="system-ui" font-size="10" fill="rgba(255,255,255,0.5)" text-anchor="middle">Focus</text>
  <rect x="499" y="352" width="96" height="84" rx="14" fill="#1E2620"/>
  <text x="547" y="384" font-family="system-ui" font-size="22" text-anchor="middle">🎉</text>
  <text x="547" y="406" font-family="system-ui" font-size="10" fill="rgba(255,255,255,0.5)" text-anchor="middle">Party</text>
  <rect x="605" y="352" width="96" height="84" rx="14" fill="#1E2620"/>
  <text x="653" y="384" font-family="system-ui" font-size="22" text-anchor="middle">🎬</text>
  <text x="653" y="406" font-family="system-ui" font-size="10" fill="rgba(255,255,255,0.5)" text-anchor="middle">Cinema</text>
  <!-- Bottom info -->
  <rect x="499" y="452" width="202" height="60" rx="12" fill="#111411"/>
  <text x="600" y="477" font-family="system-ui" font-size="10" fill="rgba(255,255,255,0.25)" text-anchor="middle">All devices adjust automatically</text>
  <text x="600" y="496" font-family="system-ui" font-size="10" fill="rgba(255,255,255,0.25)" text-anchor="middle">when a Vibe is activated</text>

  <!-- Phone right: Device detail -->
  <rect x="840" y="80" width="260" height="550" rx="32" fill="#111411" stroke="#1E2820" stroke-width="1.5"/>
  <rect x="853" y="98" width="234" height="514" rx="24" fill="#161B17"/>
  <text x="970" y="136" font-family="system-ui" font-size="12" fill="rgba(255,255,255,0.3)" text-anchor="middle">Lighting</text>
  <!-- Brightness ring -->
  <circle cx="970" cy="240" r="70" fill="none" stroke="#1E2620" stroke-width="12"/>
  <circle cx="970" cy="240" r="70" fill="none" stroke="#243D2F" stroke-width="12" stroke-dasharray="264 440" stroke-dashoffset="110" stroke-linecap="round"/>
  <text x="970" y="233" font-family="system-ui" font-size="28" font-weight="200" fill="white" text-anchor="middle">60%</text>
  <text x="970" y="253" font-family="system-ui" font-size="10" fill="rgba(255,255,255,0.3)" text-anchor="middle">Brightness</text>
  <!-- Color temp row -->
  <rect x="869" y="332" width="202" height="44" rx="12" fill="#1E2620"/>
  <rect x="877" y="342" width="24" height="24" rx="6" fill="#FFD580"/>
  <rect x="909" y="342" width="24" height="24" rx="6" fill="#FFE8B0"/>
  <rect x="941" y="342" width="24" height="24" rx="6" fill="#FFF4DC"/>
  <rect x="973" y="342" width="24" height="24" rx="6" fill="white"/>
  <rect x="1005" y="342" width="24" height="24" rx="6" fill="#C8E8FF"/>
  <rect x="1037" y="342" width="24" height="24" rx="6" fill="#A8D4FF"/>
  <!-- Group rows -->
  <rect x="869" y="390" width="96" height="50" rx="10" fill="#1A2D22"/>
  <text x="917" y="412" font-family="system-ui" font-size="9" fill="rgba(255,255,255,0.4)" text-anchor="middle">Bedroom</text>
  <text x="917" y="428" font-family="system-ui" font-size="11" fill="white" text-anchor="middle">On · 40%</text>
  <rect x="975" y="390" width="96" height="50" rx="10" fill="#1E2620"/>
  <text x="1023" y="412" font-family="system-ui" font-size="9" fill="rgba(255,255,255,0.4)" text-anchor="middle">Kitchen</text>
  <text x="1023" y="428" font-family="system-ui" font-size="11" fill="rgba(255,255,255,0.4)" text-anchor="middle">Off</text>
</svg>
